<svg id="Layer_1" data-name="Layer 1" xmlns="http://www.w3.org/2000/svg" viewBox="0 0 1146.73 1470.98"><defs><style>.cls-1{fill:#424142;}.cls-2{fill:#434143;}.cls-3{fill:#a8a9ac;}.cls-4{fill:#808285;}.cls-5{fill:#bcbec0;}</style></defs><g id="border"><path class="cls-1" d="M589.86,1099.33a378.74,378.74,0,0,1-165.94-38.23c-50.56-24.41-95.94-59.31-134.86-103.73-38.77-44.25-69.2-95.75-90.44-153a544.55,544.55,0,0,1,0-373.7c21.24-57.3,51.67-108.79,90.44-153,38.92-44.42,84.3-79.32,134.86-103.73a379.32,379.32,0,0,1,331.87,0c50.57,24.41,96,59.31,134.86,103.73,38.78,44.26,69.21,95.75,90.44,153.05a544.4,544.4,0,0,1,0,373.7c-21.23,57.3-51.66,108.8-90.44,153-38.91,44.42-84.29,79.32-134.86,103.73A378.7,378.7,0,0,1,589.86,1099.33Zm0-929.56a344.94,344.94,0,0,0-151.09,34.82c-46.41,22.41-88.14,54.54-124,95.49-36,41.11-64.32,89-84.1,142.41a510.27,510.27,0,0,0,0,350c19.78,53.39,48.08,101.3,84.1,142.42,35.88,41,77.61,73.07,124,95.48a345.12,345.12,0,0,0,302.18,0c46.41-22.41,88.14-54.53,124-95.48,36-41.12,64.32-89,84.1-142.42a510.27,510.27,0,0,0,0-350C929.29,389.1,901,341.19,865,300.08c-35.88-40.95-77.61-73.08-124-95.49A344.94,344.94,0,0,0,589.86,169.77Z"/><path class="cls-2" d="M589.86,1100.83a380.21,380.21,0,0,1-166.59-38.38C372.52,1038,327,1002.93,287.93,958.36,249,914,218.52,862.31,197.22,804.84c-22-59.37-33.16-122.41-33.16-187.37A537.22,537.22,0,0,1,197.22,430.1C218.52,372.63,249,321,287.93,276.58,327,232,372.52,197,423.27,172.49a380.82,380.82,0,0,1,333.18,0C807.2,197,852.73,232,891.78,276.58,930.68,321,961.2,372.63,982.5,430.1a545.95,545.95,0,0,1,0,374.74C961.2,862.32,930.68,914,891.78,958.36c-39,44.57-84.58,79.59-135.33,104.09A380.25,380.25,0,0,1,589.86,1100.83Zm0-963.71a377.35,377.35,0,0,0-165.28,38.07c-50.39,24.32-95.6,59.1-134.39,103.37C251.54,322.68,221.2,374,200,431.15a543,543,0,0,0,0,372.65c21.17,57.13,51.51,108.46,90.16,152.58s84,79.05,134.39,103.37a377.73,377.73,0,0,0,330.56,0c50.39-24.32,95.6-59.1,134.39-103.37,38.65-44.11,69-95.45,90.16-152.58a543,543,0,0,0,0-372.65C958.51,374,928.18,322.67,889.53,278.56c-38.79-44.27-84-79.05-134.39-103.37A377.35,377.35,0,0,0,589.86,137.12Zm0,929.56a346.42,346.42,0,0,1-151.74-35c-46.6-22.5-88.49-54.74-124.5-95.84C277.48,894.6,249.09,846.53,229.24,793a511.81,511.81,0,0,1,0-351c19.85-53.56,48.24-101.63,84.38-142.88s77.9-73.35,124.5-95.85a346.7,346.7,0,0,1,303.48,0c46.6,22.5,88.48,54.74,124.5,95.85S930.63,388.41,950.48,442a511.81,511.81,0,0,1,0,351c-19.85,53.56-48.24,101.63-84.38,142.89-36,41.1-77.9,73.34-124.5,95.84A346.42,346.42,0,0,1,589.86,1066.68Zm0-895.41a343.46,343.46,0,0,0-150.44,34.67c-46.23,22.32-87.8,54.33-123.54,95.12C280,342,251.77,389.8,232.05,443a508.87,508.87,0,0,0,0,348.92c19.72,53.21,47.92,101,83.83,142,35.74,40.8,77.31,72.8,123.54,95.12a343.62,343.62,0,0,0,300.87,0c46.24-22.32,87.8-54.32,123.55-95.12,35.9-41,64.11-88.74,83.83-142a508.87,508.87,0,0,0,0-348.92C928,389.8,899.74,342,863.84,301.06c-35.75-40.79-77.31-72.8-123.55-95.12A343.39,343.39,0,0,0,589.86,171.27Z"/><path class="cls-3" d="M589.81,1097.39a377,377,0,0,1-59.8-4.77l4.77-29.62a347,347,0,0,0,114.24-.7l5.12,29.56A377.21,377.21,0,0,1,589.81,1097.39Zm-64.94-5.63a384.26,384.26,0,0,1-117-41l14.3-26.37A354.49,354.49,0,0,0,530,1062.21Zm134.39-.82-5.54-29.49a347.06,347.06,0,0,0,39-9.68,361,361,0,0,0,68.54-29.46l14.61,26.2a391.29,391.29,0,0,1-74.25,31.91A379.24,379.24,0,0,1,659.26,1090.94Zm-256-42.7a424.76,424.76,0,0,1-97.8-75.71l21.56-20.86a395.16,395.16,0,0,0,90.88,70.39ZM780.35,1046l-14.94-26a397.06,397.06,0,0,0,90.14-71.4l21.78,20.63A426.76,426.76,0,0,1,780.35,1046ZM301.93,968.8a474.5,474.5,0,0,1-72.14-100l26.38-14.29a444.62,444.62,0,0,0,67.56,93.7Zm578.93-3.4-22-20.39A445.77,445.77,0,0,0,925,851.61l.52-1,26.52,14-.56,1A475.69,475.69,0,0,1,880.86,965.4ZM227.36,864.24a513.18,513.18,0,0,1-43.87-115l29.1-7.28a482.92,482.92,0,0,0,41.3,108.25Zm727.05-4.13-26.65-13.78a495.49,495.49,0,0,0,40.81-108.57L997.69,745A525.76,525.76,0,0,1,954.41,860.11ZM182.27,744.28a541.41,541.41,0,0,1-14.82-122l30-.24a511.63,511.63,0,0,0,14,115.23ZM998.9,740l-29.19-6.91A500.65,500.65,0,0,0,983.16,617.8v-.62l30-.07v.73A530.36,530.36,0,0,1,998.9,740ZM197.43,617.18l-30,0a543.91,543.91,0,0,1,13.94-122.09l29.22,6.78A513.33,513.33,0,0,0,197.43,617.18Zm785.7-4.87A510,510,0,0,0,968.8,497.13L998,490a540.5,540.5,0,0,1,15.18,122ZM211.71,497.12l-29.16-7.06a516.49,516.49,0,0,1,42.91-115.33l26.66,13.78A485.46,485.46,0,0,0,211.71,497.12Zm755.93-4.69A483.73,483.73,0,0,0,926,384.3l26.49-14.09a513.09,513.09,0,0,1,44.22,114.84ZM254.36,384.22l-26.51-14A477.7,477.7,0,0,1,299,269.46l22,20.37A447.12,447.12,0,0,0,254.36,384.22ZM923.71,380a446.88,446.88,0,0,0-67.78-93.57l21.77-20.64a476.93,476.93,0,0,1,72.35,99.85ZM324.29,286.31l-21.8-20.62a427.26,427.26,0,0,1,96.88-76.87l15,26A397,397,0,0,0,324.29,286.31ZM852.59,283a397.4,397.4,0,0,0-90.94-70.35l14.65-26.18a427.25,427.25,0,0,1,97.83,75.65ZM418.53,212.44l-14.65-26.19a384.42,384.42,0,0,1,116.49-42.53l5.56,29.48A354,354,0,0,0,418.53,212.44Zm338.93-2.11a354.93,354.93,0,0,0-107.9-37.89l5.19-29.55a384.49,384.49,0,0,1,117,41.08Zm-226.82-38-5.15-29.55A375.52,375.52,0,0,1,649.6,142l-4.78,29.61a345.93,345.93,0,0,0-114.18.7Z"/><path class="cls-4" d="M957.87,968.45c-1.4-2.28-30.21-30.52-27.28-19.17L913,964c2.94-11.66-.73-24.07-14.82-38.61-3.89-4,7.6-18.66,3.06-21.89L782.25,953c10.33,11.93,15,28,15.64,43.48.54,12-3.8,25.19-10.57,36a40.13,40.13,0,0,1-4.13,10.34,38.7,38.7,0,0,1-11.61,12.35c-2.8,3.28-1.76,0-5.59,2.06-33.77,17.94-82,34.58-119.46,39.33-35.43,4.5-62.81,6.49-99.28,1.74-4.19-.54-23.61-2.74-22.13-2.44-3.42.18,3.33.58,0,0l-4.56,89.83c.52,8.54,15.07,11.4,22.74,4.45C597.56,1141,668.94,1111.8,738,1090,770.17,1079.8,1002.49,1041,957.87,968.45Z"/><path class="cls-1" d="M959.14,967.66c-.84-1.37-23.26-24.68-28.75-22.35-.86.37-1.74,1.25-1.45,3.39l-13.68,11.45c1.35-11.64-3.91-23.4-16-35.84-1.24-1.28.64-6,2-9.43,2.11-5.31,4.1-10.32.85-12.64l-.68-.49L781.19,951.83c.72.77,1.41,1.57,2.07,2.38L900.8,905.28c.44,1.64-1.1,5.54-2.28,8.49-2,5.12-4,10-1.38,12.63,12.9,13.3,17.49,25.12,14.45,37.19l-1.13,4.49,21.82-18.26-.24-.92a4.8,4.8,0,0,1-.15-.77c4.39.93,22.94,18.41,24.7,21.1,5.93,9.65,7,19.18,3.18,28.34-18.07,43.25-137.53,70.93-194.93,84.23-12.46,2.88-22.3,5.16-27.28,6.74-60.28,19-136.94,47.69-195.27,100.53-4.35,3.94-11,4.23-15.26,2.48-1.75-.71-4.71-2.42-5-5.83l4.54-89.6c-1-.13-2-.31-3-.52l-4.57,90.06v.16c.22,3.73,2.72,6.83,6.83,8.51a18.14,18.14,0,0,0,6.73,1.25,17.24,17.24,0,0,0,11.67-4.29c57.9-52.45,134.18-80.94,194.16-99.89,4.87-1.54,14.66-3.81,27-6.68,57.9-13.41,178.36-41.32,197-86C966.76,988.63,965.61,978.18,959.14,967.66Z"/><path class="cls-5" d="M220.9,958.63c-7.8,5.37-13.39,11.42-13.52,18-.47,24,9.48,63.94,16.3,87.41s31.28,23.06,43.09,13A181.73,181.73,0,0,1,298,1055.39c36.87-20,110.66-44.41,182.92-40,100.53,6.17,225.1,42.89,259.68,40.42s74.32,9.25,210.45-56.77l10.07-4.54c4.93-2.23,6.79-7.51,4.11-11.76-10.86-17.26-17.31-38-14.35-58.16,1.4-9.62,4.39-18,.11-27.68-9.63-21.77-38.55-1.71-53.25,4.26a604.7,604.7,0,0,1-70.9,24.29C760,943.39,689.92,946,622.34,930.59c-42.47-9.7-85.1-19.18-128.23-25A430.15,430.15,0,0,0,340,912.53a410.46,410.46,0,0,0-74.15,24.76C256.88,941.26,235.19,948.79,220.9,958.63Z"/><path class="cls-1" d="M248.35,1085.52a28.61,28.61,0,0,1-8.22-1.17c-8.91-2.67-15.44-9.7-18.37-19.79-4-13.69-16.92-60.5-16.38-88,.13-6.6,4.84-13,14.39-19.58h0c11.17-7.7,26.91-14,37.33-18.24,3.16-1.28,5.88-2.38,7.91-3.28a413.39,413.39,0,0,1,74.51-24.88,430,430,0,0,1,154.86-7c42.42,5.71,83.25,14.7,128.41,25,65.21,14.88,135.59,13.12,203.53-5.09A602.4,602.4,0,0,0,897,899.34c2.57-1.05,5.68-2.58,9-4.2,11.65-5.74,26.14-12.89,36.85-9,4.42,1.61,7.79,5,10,10,3.69,8.34,2.36,15.64.95,23.37-.32,1.76-.65,3.58-.92,5.41-2.63,18,2.37,38.21,14.08,56.81a9.57,9.57,0,0,1,1.12,7.95,10.93,10.93,0,0,1-6.11,6.69l-10.07,4.55c-115.23,55.88-161,56.22-194.33,56.46-5.9.05-11.46.09-16.8.47-15.83,1.13-49.23-5.61-91.51-14.15-50.47-10.19-113.28-22.88-168.43-26.26-76.94-4.73-150.51,22.75-181.85,39.73a180.14,180.14,0,0,0-30.88,21.39A30.89,30.89,0,0,1,248.35,1085.52ZM222,960.28c-8.29,5.71-12.55,11.22-12.65,16.36-.53,26.93,12.28,73.25,16.22,86.81,3.26,11.2,10.32,15.47,15.68,17.07a26.8,26.8,0,0,0,24.2-5,184.31,184.31,0,0,1,31.57-21.86c31.71-17.18,106.15-45,184-40.21,55.42,3.4,118.38,16.12,169,26.34,42,8.48,75.14,15.18,90.43,14.08,5.46-.39,11.09-.43,17-.48,33-.24,78.2-.57,192.67-56.09l10.11-4.56a7,7,0,0,0,3.93-4.21,5.6,5.6,0,0,0-.68-4.66c-12.22-19.41-17.42-40.54-14.64-59.52.27-1.9.61-3.75.94-5.55,1.35-7.41,2.52-13.81-.68-21-1.79-4-4.31-6.61-7.71-7.85-9.11-3.3-22.76,3.43-33.72,8.84-3.36,1.65-6.53,3.21-9.24,4.31a604.13,604.13,0,0,1-71.13,24.37c-68.57,18.38-139.62,20.16-205.46,5.13-45.06-10.29-85.8-19.26-128-24.95a426.19,426.19,0,0,0-153.43,6.88,408.74,408.74,0,0,0-73.78,24.65c-2.1.93-4.85,2-8,3.33-10.26,4.13-25.75,10.38-36.57,17.83Z"/></g></svg>