<svg id="Layer_1" data-name="Layer 1" xmlns="http://www.w3.org/2000/svg" viewBox="0 0 1146.73 1470.98"><defs><style>.cls-1{fill:#efddce;}.cls-2{fill:#e58043;}.cls-3{fill:#da3f3e;}.cls-4{fill:#6c5854;}.cls-5{fill:#c2af9e;}.cls-6{fill:#8e2f30;}.cls-7{fill:#2d2223;}.cls-8{fill:#6f5f58;}.cls-9{fill:#ce4a40;}.cls-10{fill:#5d504a;}.cls-11{fill:#818385;}.cls-12{fill:#b56143;}.cls-13{fill:#434143;}.cls-14{fill:#484648;}.cls-15{fill:#596856;}</style></defs><g id="train"><polygon class="cls-1" points="741.94 508.22 941.99 423.27 955.42 459.21 744.12 572.48 741.94 508.22"/><polygon class="cls-2" points="741.22 520.2 944.89 429.44 955.06 456.31 740.85 568.49 741.22 520.2"/><polygon class="cls-3" points="750.29 511.49 943.44 426.9 929.74 400.67 735.41 472.28 750.29 511.49"/><polygon class="cls-4" points="747.39 475.91 932.18 401.48 928.92 392.23 739.76 464.65 747.39 475.91"/><polygon class="cls-3" points="744.12 572.48 955.42 459.21 963.77 482.08 743.76 616.05 744.12 572.48"/><path class="cls-5" d="M699.38,447.5c.81-.27,49.82,16.7,49.82,16.7l177.18-70.34-5.09-13.62-16.88-26.95L641.65,435Z"/><path class="cls-4" d="M652.47,431.55s67.87-1.86,92.8,16.05c5,3.62,8.82,9.41,9,15.6l.59,42.07-.06,90.53c0,1.71,1.27,16.07-.53,17l-5.81,1.82L732.87,461.39,639.2,435.61Z"/><path class="cls-5" d="M464,580.55,749.2,464.2s8.36-28.95-104.92-30.16l-381,109.49,41.4-1.25,93.47,6.88L464,580.55"/><polygon class="cls-4" points="467.16 564.24 749.21 464.2 749.93 479.18 477.82 580.54 467.16 564.24"/><path class="cls-3" d="M750,476.09,482.57,574l-11-13.56-2.29-2.58a38.8,38.8,0,0,0-21.14-12.26C434.2,542.76,391.86,534,348,532.87c-22.61-.58-45.33.28-67.5,5-19.14,4.1-36.3,14.75-53,24.6a2.4,2.4,0,0,0,1,4.46l196.66,21.1-9.41,54.58-81.87,37.64,8.39,35.25,408-196.7C749.88,517.69,750,476.09,750,476.09Z"/><path class="cls-1" d="M429,570.3l1,7.19S460.47,561,472.83,562c0,0,.05-.28-5-5.68C467.82,556.36,432.13,567,429,570.3Z"/><path class="cls-6" d="M119.62,708.52s-14.43-48.3,25.09-69.63,52.7-23.21,52.7-23.21,18.84-44.62,28.23-52.07c18.19-14.45,67.12-14.43,67.12-14.43s78.42-1.26,131.74,16.31c0,0,12.55,3.14,8.37,38.27s-7.95,44.75-7.95,44.75l-68.17,33.66-3.14,11.92s-111,23.21-135.5,63.36c0,0-28.23,52.79-47.68,11.65S119.62,708.52,119.62,708.52Z"/><path class="cls-5" d="M392.53,519.46l104.13,6.83,40.47-13.12c.15,0,1.06-.18.34-.24l-90-7.57Z"/><polygon class="cls-7" points="513.1 513.84 482.93 522.87 412.78 518.27 449.82 508.77 513.1 513.84"/><path class="cls-8" d="M493.24,525.43l-.2,7.36,41.14-12.42.21-8.16a.08.08,0,0,0-.11-.08Z"/><path class="cls-8" d="M493,532.79c-8.88-5.26-90.81-8-104.85-9l0-3.28a2.32,2.32,0,0,1,2.48-2.3l102.55,7.27Z"/><path class="cls-5" d="M539.21,472.05,625,477.68l33.34-10.81c.13,0,.87-.15.28-.2l-74.13-6.24Z"/><polygon class="cls-7" points="641.38 468.13 616.52 475.57 558.72 471.78 589.24 463.95 641.38 468.13"/><path class="cls-8" d="M625,477.68l-.16,6.06,33.89-10.23.18-6.73a.07.07,0,0,0-.09-.07Z"/><path class="cls-4" d="M624.86,483.74c-7.32-4.33-74.84-6.57-86.41-7.46l0-2.7a1.91,1.91,0,0,1,2-1.89l84.5,6Z"/><path class="cls-5" d="M745,408.61l65,4.79,25.33-8c.09,0,.66-.1.21-.14l-56.11-5.19Z"/><polygon class="cls-7" points="822.41 406.27 803.53 411.75 759.76 408.52 782.93 402.78 822.41 406.27"/><path class="cls-8" d="M810,413.4l-.16,4.6,25.74-7.54.18-5.1a.05.05,0,0,0-.07-.05Z"/><path class="cls-8" d="M809.79,418c-5.52-3.33-56.65-5.45-65.4-6.2l0-2a1.44,1.44,0,0,1,1.56-1.42l64,5.06Z"/><path class="cls-5" d="M828.23,382.53l53.54,4,20.87-6.57c.08,0,.55-.09.18-.12l-46.24-4.28Z"/><polygon class="cls-7" points="892.03 380.61 876.48 385.12 840.41 382.46 859.51 377.73 892.03 380.61"/><path class="cls-8" d="M881.77,386.48l-.13,3.79,21.21-6.22.15-4.19a.06.06,0,0,0-.06-.05Z"/><path class="cls-4" d="M881.64,390.27c-4.55-2.75-46.68-4.49-53.9-5.1l0-1.69a1.19,1.19,0,0,1,1.28-1.17l52.72,4.17Z"/><path class="cls-6" d="M428.68,593.3l73.38-26.57s18.89-.19,22.43,43.34a2.46,2.46,0,0,1-1.34,2.37L507,620.62c-4.3,1.32-4.79-3.21-8.9-1.39l-65.29,29.31a11.11,11.11,0,0,1-7.62.5l-6.13-1.79Z"/><path class="cls-7" d="M434.84,598.19l-1.12,41.25a2.54,2.54,0,0,0,3.5,2.36l34.54-16.3s5.86-42.79-16.73-36.09C432.93,596,434.84,598.19,434.84,598.19Z"/><path class="cls-7" d="M507.22,578a44.5,44.5,0,0,1,7.9,28.9l-35.83,15.46c2.9-28.11-8.57-36.52-8.57-36.52l27.8-10.51A7.41,7.41,0,0,1,507.22,578Z"/><path class="cls-7" d="M296.11,600.41l10.26-26.7a8.46,8.46,0,0,1,3.55-4.29c2.67-1.56,7.56-3.14,16.3-2.69,16.31.83,83.64,9.84,83.64,9.84s13.81,2.5,11.3,12.13-7.53,23.84-7.53,23.84-.84,7.11-17.57,4.6-62.31-8.86-90.33-9C305.73,608.11,292.77,608.25,296.11,600.41Z"/><path class="cls-7" d="M209.12,608.11c7.87-15.79,14.26-37.58,34.52-40.47,14.11-2,26.39-2.19,42.43-2.11,17.67.08,1.51,27.22-1.46,33.08-6,11.73-30.11,6.4-46.05,7-5.48.2-11,.29-16.44.76C220.44,606.5,209.87,606.61,209.12,608.11Z"/><path class="cls-9" d="M130.86,649.49s10.51-14.79,66.55-33.81c0,0,159.34-11.15,204.09,16.9,0,0,2.46,3.95-19.24,13-24,10-84.9,33.87-110.83,34.29s-50.18-12.54-77-13.38a154,154,0,0,0-44.16,5.22,8.53,8.53,0,0,1-7.07-1.13C137.83,666.9,128.4,659,130.86,649.49Z"/><rect class="cls-8" x="167.51" y="662.53" width="51.84" height="72.58" rx="8.12" transform="translate(-512.31 865.25) rotate(-87.8)"/><ellipse class="cls-5" cx="191.18" cy="698.82" rx="22.79" ry="23.87"/><path class="cls-1" d="M198.85,690.1c0,6.24-3.5,11.29-7.81,11.29s-7.81-5-7.81-11.29,3.5-10.65,7.81-10.65S198.85,683.86,198.85,690.1Z"/><ellipse class="cls-1" cx="188.79" cy="712.22" rx="5.21" ry="7.15"/><path class="cls-1" d="M341.17,663.46s-1.39-5.7,15.13-12.41c14-5.71,37.81-15.32,44.62-18.07,1-.42,1.63-.78,2.61,1.14l3.36,5.66Z"/><ellipse class="cls-8" cx="188.79" cy="764.9" rx="13.49" ry="18.04"/><path class="cls-5" d="M202.05,768.23c-1.17,8.37-6.66,14.71-13.26,14.71-7.45,0-13.49-8.08-13.49-18l3-2a7.44,7.44,0,0,1,10.6,2.67c2,3.66,6.62,5.56,8.29,5.06Z"/><polygon class="cls-10" points="338.56 933.11 967.58 498.96 963.77 482.08 341.14 851.55 329.15 933.11 338.56 933.11"/><path class="cls-11" d="M318.06,934.07a36.69,36.69,0,0,1,10.05,5.13l585.43-407Z"/><path class="cls-11" d="M288.53,937a37.49,37.49,0,0,1,17.9-4.72,38,38,0,0,1,5.7.42l599-406.8L286.9,937l.71,0Z"/><polygon class="cls-11" points="260.29 934.15 265.24 944.45 907.16 517.34 260.29 934.15"/><polygon class="cls-11" points="252.85 920.56 257.67 930.92 902.74 508.62 252.85 920.56"/><path class="cls-3" d="M694.08,590.79,341.14,780l-6.35,87.51L749.93,607l.36-44.29S697.89,601.32,694.08,590.79Z"/><path class="cls-9" d="M351.41,782.21s33.3-13,8.36,27.32a16.47,16.47,0,0,0,14.91,25.15,83.28,83.28,0,0,0,18.21-3.28l-43.67,28.93L338.56,933.1S318.9,947.53,271,955.69c0,0-10.25,17.56-39.74,16.94s-74-6.28-74-6.28l-26.8-13.8V944.4l-13.3-16.94V871l13.3-8.16-13.41-16.93V829L121.5,780l32,55.67,80.29,3.3L294,792.9Z"/><path class="cls-6" d="M271,955.69s-10.25,17.56-39.74,16.94-74-6.28-74-6.28l-26.8-13.8V944.4l-13.3-16.94V871l13.3-8.16-13.41-16.93V829L121.5,780l32,55.67,80.29,3.3,84.06-63.69s-30.11,85.64-9.4,92.23C347.91,880.1,280.27,954,280.27,954Z"/><path class="cls-1" d="M750.38,563.77l-.09-52.28-107,49.31L472.83,635.44s-77.45,31-111.64,47-59,25.72-59,25.72c-46.73,14.43-71.83,28.85-93.65,59.65-5.62,7.92-14.31,21.69-25.66,15.08-4.42-2.57-7.12-7.51-9.31-11.82-2.56-5-5.17-10-7.88-15-3.86-7.09-7.89-14.1-12.33-20.85A153,153,0,0,0,136,713.64a50.1,50.1,0,0,0-16.39-10.77c-.72-.29-1.19.12-1,.87l11.87,59.39a1.18,1.18,0,0,1,0,.56l-10.25,34.52a1.17,1.17,0,0,0,.27,1.13l.58.66c6,6.92,10.52,15.34,14.91,23.3,5.36,9.7,9.59,19.23,11.92,30.13.21,1,2,13.28,2.85,13.35l1.4.12,42.78,3.44,23.48,1.9c2.33.18,4.67.41,7,.56a5.88,5.88,0,0,0,1.9.14c2.37-1,2.9-4.88,3.5-7a93.19,93.19,0,0,1,3.08-9.27,66.64,66.64,0,0,1,12.37-19.32C258,824.07,272,814.8,288.1,807.63c19.35-8.64,39.19-16.22,59-23.7A127,127,0,0,0,363,776.62l156.21-84.38L666.85,612s71.33-38,83.63-44.75C750.48,567.08,750.38,563.77,750.38,563.77Z"/><path class="cls-2" d="M750.48,516.12s-135.61,63.71-176.19,81.62Q513,624.8,451.23,650.85C435.17,657.61,418.6,663.23,403,671c-18.09,8.93-33.94,14.46-49.36,22.17C302,717.57,241.84,735.5,202.11,779.65c-4.05,4.49-8.82,9.6-14.85,9.22-5.78-.37-9.84-5.63-13.1-10.42q-19.11-28-38.22-56.08c-4.42-6.47-10.48-13.44-19.21-12.09-8.54,1.32-14.82,10.19-16.47,18.16-2.3,11.14,2.42,22.49,6.88,32.46a567.25,567.25,0,0,0,29.35,56.7c3.93,6.64,8.07,13.29,13.77,18.49,19.12,17.39,48.75,13.52,74.12,8.55,18-26.6,94.77-56.95,123.74-70.82,82.3-39.42,239.71-125.91,402.26-210.05Z"/><path class="cls-12" d="M311.14,791.33c-28.8,11.4-79.54,35.44-87.38,81.63-10,4.45-49.36,7.48-68.67.9-.43-.15-.64-3.81-.7-4.22-.48-3.21-.94-6.42-1.42-9.63a197.25,197.25,0,0,0-4-20.1,65.76,65.76,0,0,0-5.22-12.11c-4.24-8.25-9.12-16.46-15.39-23.33a32.79,32.79,0,0,0-8.23-6.89,1,1,0,0,1-.59-.75l-2-18.77a.88.88,0,0,0-.25-.54c-2.49-2.52-25-26.44-14.9-56.85a.81.81,0,0,0,0-.31c-.06-.81.29-5.31,15.07-6.93a.92.92,0,0,0,.83-.91l-.1-8.78v-.07c-.28-3.17,0-.18.49.33,1.79,1.76,4.89,4.53,5.59,5.25,4.91,5,9.66,10.28,14.29,15.57,9.84,11.26,16.48,22.76,24.23,37.58s17.23,41,39.23,22.25a51.08,51.08,0,0,0,8.44-9.36c13.52-19.12,35.25-39.9,55.58-47.58,11.6-4.38,23.73-9.68,35.73-12.76a.91.91,0,0,1,1.1,1.12c-.91,3.18.19,6.71-1,9.85-.91,2.34-3.09,4-5.35,5-3.4,1.61-7,2.87-10.57,4.15-3.83,1.39-9.21,3.38-13.74,5.32a7.53,7.53,0,0,0-4.55,6.46c-.53,8.8-1.5,27.89-.34,32.52,1.88,7.53,10,3.42,23,1,8.86-1.65,18.33-3.83,27.51-5.11,4.32-.6,14,3.82,11.3,7.23C326.72,785.58,316.25,789.3,311.14,791.33Z"/><path class="cls-8" d="M276.64,767.45V752.13a5.43,5.43,0,0,1,4.46-5.34l47.28-8.5a5.43,5.43,0,0,1,6.39,5.34v14.56a5.43,5.43,0,0,1-4.38,5.32l-47.29,9.27A5.42,5.42,0,0,1,276.64,767.45Z"/><path class="cls-7" d="M284.58,764.2V753.07a3.94,3.94,0,0,1,3.25-3.88L322.18,743a3.94,3.94,0,0,1,4.64,3.88v10.57a3.93,3.93,0,0,1-3.18,3.87l-34.36,6.73A3.94,3.94,0,0,1,284.58,764.2Z"/><path class="cls-2" d="M117.53,713.43s-1,10.77,14.32,24.26c0,0-12.54,6.27-17.56,0s-4-10-11.82-17.56c0,0,.35-3.16,4.88-4.49A97.42,97.42,0,0,1,117.53,713.43Z"/><path class="cls-5" d="M100.75,727l5.84,4.75a6.41,6.41,0,0,1,2.4,4.18l2.79,20.63-3.2,9.51S96.38,748.9,100.75,727Z"/><path class="cls-7" d="M106.74,736l-4.27-1.34c-1.06,1.51-1.51,8-1,9.78.7,2.22,2.92,10.58,4,11.55l4,.64Z"/><path class="cls-1" d="M228.44,974a1.84,1.84,0,0,1-.41-.05,2,2,0,0,1-1.55-2.36,137.87,137.87,0,0,1,34.88-67.09l.18-.16c3.34-2.78,6.46-5.63,9.49-8.38s6.21-5.64,9.61-8.48l.17-.13c3.41-2.27,6.72-4.57,9.91-6.79,9.59-6.68,18.64-13,29.7-18.09l.1,0c3.77-1.51,7.6-2.91,11.3-4.27A214.18,214.18,0,0,0,354,849.05c3.85-2.76,7.51-5.57,11.05-8.29s7.34-5.65,11.3-8.48l.08,0C460.24,778.63,570.64,712.36,668,653.89c28.88-17.34,56.16-33.71,80.86-48.63a2,2,0,0,1,2.06,3.43c-24.7,14.91-52,31.29-80.86,48.63C572.73,715.76,462.38,782,378.58,835.57c-3.89,2.78-7.57,5.61-11.14,8.36s-7.33,5.64-11.3,8.47l-.26.16a215.74,215.74,0,0,1-22.69,9.33c-3.65,1.34-7.43,2.73-11.14,4.21-10.71,4.95-19.62,11.15-29.05,17.71-3.18,2.22-6.47,4.5-9.88,6.78-3.3,2.76-6.4,5.58-9.4,8.3s-6.16,5.6-9.53,8.41a133.88,133.88,0,0,0-33.8,65.08A2,2,0,0,1,228.44,974Z"/><path class="cls-1" d="M142.83,958.44h0a1.5,1.5,0,0,1-1.46-1.54c1.51-53.76-7.53-74.36-15.38-82.18-4.16-4.14-7.49-4.08-7.62-4.08a1.51,1.51,0,0,1-1.56-1.43,1.49,1.49,0,0,1,1.4-1.56c.19,0,4.58-.21,9.67,4.72,8.38,8.13,18,29.4,16.49,84.61A1.5,1.5,0,0,1,142.83,958.44Z"/><path class="cls-8" d="M117.05,845.91s-9.07,21.68.11,25.09S152,883.13,152,883.13l22.84,4.19,42.61,2.18,36.06-.59,34.58-3,14.37-1,.69-15.88a1.53,1.53,0,0,0-1.79-1.51l-19,4.29L249.22,874l-28.6.4L183,872.88l-18.51-2.82-12.54-1.39-14.43-4.14-11.92-6.39-5-7.71Z"/><path class="cls-7" d="M225,890.77,156.19,886a10.61,10.61,0,0,1-9.86-11.32l.31-4.42a3.77,3.77,0,0,1,4-3.51l76.73,5.48c2.08.14,2.51,1.68,2.36,3.76L229,887.27A3.77,3.77,0,0,1,225,890.77Z"/><path class="cls-5" d="M228.46,875.87q-16.34,0-33.65-1c-12.79-.71-26.35-1.64-39.33-4.53-14.51-3.24-29.33-7.73-39.52-18.62a1.5,1.5,0,1,1,2.18-2c9.64,10.29,24,14.61,38,17.74,12.76,2.85,26.19,3.77,38.85,4.47,38.26,2.11,72.56.72,104.87-4.25a1.5,1.5,0,1,1,.46,3A470.34,470.34,0,0,1,228.46,875.87Z"/><path class="cls-5" d="M221.94,883.56q-13.58,0-27.13-.75c-11.28-.62-29.49-2.48-43.68-5.64C137.42,874.11,126,870,114.75,860a1.5,1.5,0,0,1,2-2.24c10.75,9.56,21.78,13.48,35,16.44a293.69,293.69,0,0,0,43.2,5.57,499.7,499.7,0,0,0,104.87-5.37,1.5,1.5,0,0,1,.46,3A513.09,513.09,0,0,1,221.94,883.56Z"/><path class="cls-5" d="M228.46,891q-16.34,0-33.65-1c-12.78-.71-26.35-1.64-39.33-4.54-12.25-2.73-30.76-6.86-41.5-18.33a1.49,1.49,0,0,1,.07-2.12,1.51,1.51,0,0,1,2.12.07c10.1,10.8,28.07,14.8,40,17.46,12.76,2.84,26.19,3.76,38.85,4.46,38.26,2.11,72.56.73,104.87-4.25a1.5,1.5,0,0,1,.46,3A470.34,470.34,0,0,1,228.46,891Z"/><polygon class="cls-3" points="755.13 596.44 755.13 605.7 925.11 504.41 905.5 499.51 755.13 596.44"/><path class="cls-1" d="M755.13,606.7a1,1,0,0,1-.86-.49,1,1,0,0,1,.35-1.37L963.26,481.22a1,1,0,1,1,1,1.72L755.64,606.56A1,1,0,0,1,755.13,606.7Z"/><path class="cls-13" d="M960.23,482.08s-5.17-27.77-33.85-88.22c0,0-14.71-30.32-35.17-58.27l3.4-2.18s12.71,15.43,34.49,56.09c0,0,25.78,48.65,35.76,91.67Z"/><path class="cls-13" d="M965.59,502.41s-3.36-13.52-6.08-23.41l4.81.36,5.44,26.14Z"/><path class="cls-14" d="M798,598a80.53,80.53,0,0,0,10.22-2.27l-6.74,8.46s3.86-.16,8.22-4,6.85-5.75,6.85-5.75l-3.41,11s5.15-.24,6.93-3.93a73.88,73.88,0,0,1,6.06-9.34l3.6,8.9,8.7-1q4.62-3.45,9.26-6.87c8.29-6.13,16.76-12,25.31-17.79-5.18-6-10.7-12.81-14.35-17.39l-3.43-10.76-4.66-18.84s-5,11.11-4.11,17.42-9.64,24.11-9.64,24.11-11.78,11.41-18.17,12.6-12.54,8.72-12.54,8.72-5.61,4.79-8.86,4S791,599.19,798,598Z"/><path class="cls-14" d="M786.26,641l5.61-4.78s-.73.88-1.66,2.1q8.87-7.72,18-15.07L792.82,628l-11.13,11.38S781.23,643.93,786.26,641Z"/><path class="cls-14" d="M811.32,594.28c4.75-5.73,7.12-4.91,7.12-4.91l3.16.82,6.34-4.09L839,582.82s-3.16,6.55,0,4.92,6.33-5.73,6.33-5.73a29.58,29.58,0,0,0,7.12-9.82c2.37-5.72,6.33,4.91,6.33,4.91s9.41,5.8,4.7-2l4.41,3.78,1.3-.88L858,564.84s-4-9.82-4.75-13.91,0-11.45-4.75.82L839,571.38l-6.33,6.54s-10.29,4.9-14.24,6.54-11.08,9-11.08,9S806.57,600,811.32,594.28Z"/><path class="cls-15" d="M779.89,652.61c-1-7-2.18-12.84-3.63-14.18-2.5-2.31-3.18,9.39-3.26,20.49Q776.46,655.79,779.89,652.61Z"/><path class="cls-15" d="M702.53,681.48l5.87-4.79s-9,10.36-4.32,9.26,9.15-6.75,9.15-6.75l6.67-2.09-5.59,11.11s6-1.16,9.19-5.83,5.82-5.69,5.82-5.69l2.11,1.73-3.77,7.22c1.22-.76,2.46-1.49,3.71-2.2.94-.76,1.93-1.59,2.87-2.42a8.23,8.23,0,0,1,3.92-1.09,103.54,103.54,0,0,1,16-5.94c2.18-1.32,4.32-2.7,6.44-4.12,9.41-8.06,18.51-16.48,27.56-25l-.11-.11c0-1.64-.09-7.22-1.69-11.17,2.67,1.14,6.2,2.94,8.37,5.19,3.88-3.54,7.84-7,11.84-10.43-4.34-1.69-20.4-20.52-28.26-29.92l-3.59-10.76-4.87-18.84s-5.25,11.11-4.3,17.41-10.09,24.11-10.09,24.11-12.33,11.42-19,12.61-13.12,8.72-13.12,8.72-5.87,4.78-9.28,4-6.58,3.91.8,2.68a89.48,89.48,0,0,0,10.69-2.26l-7,8.46s4-.17,8.6-4,7.17-5.74,7.17-5.74l-3.57,11s5.39-.23,7.26-3.93a73,73,0,0,1,6.35-9.34l3.76,8.9,11.83-1.34a11.32,11.32,0,0,1-.94,3.49S735.4,661,727.39,663.19l-18,5.29-11.66,11.38S697.27,684.42,702.53,681.48Z"/><path class="cls-15" d="M760.23,648.68l-17.39,9.81s-14.08,7.36-17.4,8.18c0,0-14.9,5.72-9.1,5.72l-7.94,4.3s-1.17,3.06,2.14,1.43l8.28-4.91h5s-7.45,6.54-3.31,5.73,8.28-4.09,8.28-4.09l4.13-.82-1.46,4.4,4.78-1.95,8.28-1.63,5-5.73-6.62-.81s-2.49-4.09,5-6.55S767.68,644.59,760.23,648.68Z"/><path class="cls-15" d="M764.36,622.5a29.88,29.88,0,0,0,7.46-9.82c2.48-5.72,6.62,4.91,6.62,4.91s9.85,5.79,4.92-2l12.47,10.19-18.22-20.45s-4.14-9.82-5-13.91,0-11.45-5,.83l-9.94,19.62-6.63,6.55s-10.76,4.9-14.9,6.54-11.59,9-11.59,9-.83,6.54,4.14.82,7.45-4.91,7.45-4.91l3.31.82,6.63-4.09,11.59-3.28s-3.31,6.55,0,4.92S764.36,622.5,764.36,622.5Z"/><path class="cls-15" d="M770.56,647l.77,3.34a13.44,13.44,0,0,0,3,7.39q1.85-1.66,3.66-3.34c-.24-.28-.4-.44-.4-.44l.64.22q3.11-2.86,6.2-5.74c-2.33-1.4-7.49-4.3-4.28-.48C784.24,652.77,770.56,647,770.56,647Z"/><path class="cls-15" d="M938.87,527.92c-.77-11.12-1.92-22.89-3.43-24.87-2.2-2.88-2.4,15.91-2.29,28.27Z"/><path class="cls-15" d="M937,529a20.74,20.74,0,0,0-.36-2.47c-.38-1.56-.6.19-.73,3.12Z"/><path class="cls-15" d="M958.54,509.05c-.19-.67-.37-1.35-.53-2-.12-.45-.22-.9-.33-1.36s-.23-1.06-.34-1.6-.22-1-.31-1.48c-.16-.84-.31-1.67-.44-2.51V500l0-.06h0c-.43-2.66-.73-5.32-.93-8h0c-4.14-4.43-13.78-20.44-18.76-28.88l-2.53-10.77-3.44-18.83s-3.71,11.1-3,17.41S920.75,475,920.75,475s-8.7,11.41-13.43,12.61-9.26,8.71-9.26,8.71-4.15,4.79-6.55,4-4.64,3.91.56,2.68a47.78,47.78,0,0,0,7.55-2.26l-5,8.46s2.85-.17,6.08-4,5.06-5.75,5.06-5.75l-2.52,11a6.1,6.1,0,0,0,5.12-3.93,79.48,79.48,0,0,1,4.48-9.34l2.66,8.9,8.35-1.34a15.27,15.27,0,0,1-.66,3.49s-16.62,17.31-22.27,19.47l-12.71,5.3L880,544.48s-.33,4.56,3.39,1.62l4.14-4.79s-6.35,10.36-3,9.25,6.46-6.74,6.46-6.74l4.7-2.09-3.94,11.11a11.17,11.17,0,0,0,6.49-5.83c2.24-4.66,4.11-5.69,4.11-5.69l1.49,1.73-3.07,8.3.07,0c.43-.46,2.9-3.06,5-5.66.74-.92,3.16-1.28,6.09-1.36,13.09-8.16,26.36-16,39.69-23.82-2.83-3.86-5.58-7.79-7.79-11a46.87,46.87,0,0,0-1.19-11.17c2.9,1.77,7.26,5.08,7.3,9.21.06,4.39,5.65,3.44,8.92,2.51h0C958.7,509.67,958.62,509.36,958.54,509.05Z"/><path class="cls-15" d="M924.12,513.29l-12.28,9.82s-9.94,7.36-12.28,8.18c0,0-10.52,5.72-6.43,5.72l-5.6,4.3s-.83,3.06,1.51,1.42l5.84-4.9h3.51s-5.26,6.54-2.34,5.73,5.85-4.09,5.85-4.09l2.92-.82-1,4.4,3.37-1.95,5.85-1.63,3.5-5.73-4.67-.82s-1.76-4.09,3.5-6.54S929.38,509.21,924.12,513.29Z"/><path class="cls-15" d="M927,487.11a30.18,30.18,0,0,0,5.26-9.81c1.75-5.73,4.67,4.91,4.67,4.91s7,5.79,3.48-2l8.81,10.19-12.87-20.45s-2.92-9.82-3.51-13.91,0-11.45-3.5.82l-7,19.63L917.68,483s-7.6,4.9-10.52,6.54-8.18,9-8.18,9-.59,6.54,2.92.82,5.26-4.91,5.26-4.91l2.34.82,4.68-4.1,8.18-3.27s-2.34,6.55,0,4.91S927,487.11,927,487.11Z"/><path class="cls-15" d="M931.41,511.57l.55,3.35s.34,8.19,5,9.83-.58-6.23-.58-6.23l4.84,2.43s2.23,1.75,4.23,3.08l1.79-1c-2.63-4.19-5.29-9.34-5.29-9.34s-6.64-6-3.76-1.12S931.41,511.57,931.41,511.57Z"/></g></svg>